<mxfile host="app.diagrams.net" modified="2023-05-04T12:44:44.880Z" agent="Mozilla/5.0 (Windows NT 10.0; Win64; x64) AppleWebKit/537.36 (KHTML, like Gecko) Chrome/111.0.0.0 Safari/537.36" etag="rpZxLOWbV1YVxx0SZx2T" version="21.2.7" type="github">
  <diagram name="Page-1" id="bfe91b75-5d2c-26a0-9c1d-138518896778">
    <mxGraphModel dx="3176" dy="1880" grid="1" gridSize="10" guides="1" tooltips="1" connect="1" arrows="1" fold="1" page="1" pageScale="1" pageWidth="1100" pageHeight="850" background="none" math="0" shadow="0">
      <root>
        <mxCell id="0" />
        <mxCell id="1" parent="0" />
        <mxCell id="VhCTj4Ukv6jTrLHe99_o-70" value="" style="group;fontFamily=宋体;" parent="1" vertex="1" connectable="0">
          <mxGeometry x="40" y="240" width="2870" height="1235" as="geometry" />
        </mxCell>
        <mxCell id="7c3789c024ecab99-78" value="&lt;font style=&quot;font-size: 40px;&quot;&gt;&lt;b&gt;本地子图&lt;/b&gt;&lt;/font&gt;" style="rounded=1;whiteSpace=wrap;html=1;shadow=0;comic=0;strokeColor=#036897;strokeWidth=2;fillColor=none;fontFamily=宋体;fontSize=28;fontColor=#6881B3;align=center;arcSize=11;verticalAlign=top;" parent="VhCTj4Ukv6jTrLHe99_o-70" vertex="1">
          <mxGeometry y="185" width="880" height="1050" as="geometry" />
        </mxCell>
        <mxCell id="7c3789c024ecab99-13" style="edgeStyle=none;html=1;labelBackgroundColor=none;endArrow=none;endFill=0;strokeWidth=2;fontFamily=宋体;fontSize=15;fontColor=#036897;exitX=0.5;exitY=0;exitDx=0;exitDy=0;" parent="VhCTj4Ukv6jTrLHe99_o-70" source="VhCTj4Ukv6jTrLHe99_o-9" edge="1">
          <mxGeometry relative="1" as="geometry">
            <mxPoint x="630" y="609.3981481481483" as="targetPoint" />
            <mxPoint x="190.00000000000045" y="758.1018518518517" as="sourcePoint" />
          </mxGeometry>
        </mxCell>
        <mxCell id="7c3789c024ecab99-14" style="edgeStyle=none;html=1;labelBackgroundColor=none;endArrow=none;endFill=0;strokeWidth=2;fontFamily=宋体;fontSize=15;fontColor=#036897;exitX=0.5;exitY=0;exitDx=0;exitDy=0;" parent="VhCTj4Ukv6jTrLHe99_o-70" source="VhCTj4Ukv6jTrLHe99_o-10" edge="1">
          <mxGeometry relative="1" as="geometry">
            <mxPoint x="450.00000000000045" y="742.4107142857142" as="sourcePoint" />
            <mxPoint x="630" y="625.0892857142858" as="targetPoint" />
          </mxGeometry>
        </mxCell>
        <mxCell id="7c3789c024ecab99-16" style="edgeStyle=none;html=1;labelBackgroundColor=none;endArrow=none;endFill=0;strokeWidth=2;fontFamily=宋体;fontSize=15;fontColor=#036897;exitX=0.5;exitY=0;exitDx=0;exitDy=0;" parent="VhCTj4Ukv6jTrLHe99_o-70" source="VhCTj4Ukv6jTrLHe99_o-8" edge="1">
          <mxGeometry relative="1" as="geometry">
            <mxPoint x="718.9193302891931" y="780" as="sourcePoint" />
            <mxPoint x="673.0136986301363" y="635" as="targetPoint" />
          </mxGeometry>
        </mxCell>
        <mxCell id="7c3789c024ecab99-53" value="&lt;b&gt;&lt;font style=&quot;font-size: 40px;&quot;&gt;&lt;br&gt;服务器&lt;/font&gt;&lt;/b&gt;" style="html=1;fillColor=#CCCCCC;strokeColor=#6881B3;gradientColor=none;gradientDirection=north;strokeWidth=2;shape=mxgraph.networks.cloud;fontColor=#6881B3;rounded=0;shadow=0;comic=0;align=center;fontSize=28;fontFamily=宋体;" parent="VhCTj4Ukv6jTrLHe99_o-70" vertex="1">
          <mxGeometry x="2460" y="570" width="410" height="205" as="geometry" />
        </mxCell>
        <mxCell id="VhCTj4Ukv6jTrLHe99_o-1" value="&lt;font style=&quot;font-size: 40px;&quot;&gt;&lt;b&gt;嵌入层&lt;/b&gt;&lt;/font&gt;" style="rounded=1;whiteSpace=wrap;html=1;shadow=0;comic=0;strokeColor=#036897;strokeWidth=2;fillColor=none;fontFamily=宋体;fontSize=28;fontColor=#6881B3;align=center;arcSize=11;verticalAlign=top;" parent="VhCTj4Ukv6jTrLHe99_o-70" vertex="1">
          <mxGeometry x="1010" y="295" width="310" height="810" as="geometry" />
        </mxCell>
        <mxCell id="VhCTj4Ukv6jTrLHe99_o-38" value="" style="edgeStyle=orthogonalEdgeStyle;rounded=0;orthogonalLoop=1;jettySize=auto;html=1;entryX=-0.005;entryY=0.512;entryDx=0;entryDy=0;entryPerimeter=0;fontFamily=宋体;" parent="VhCTj4Ukv6jTrLHe99_o-70" source="7c3789c024ecab99-78" target="VhCTj4Ukv6jTrLHe99_o-1" edge="1">
          <mxGeometry relative="1" as="geometry">
            <mxPoint x="1020" y="710" as="targetPoint" />
          </mxGeometry>
        </mxCell>
        <mxCell id="VhCTj4Ukv6jTrLHe99_o-2" value="&lt;b&gt;&lt;font style=&quot;font-size: 36px;&quot;&gt;&lt;br&gt;&lt;br&gt;用户&lt;/font&gt;&lt;/b&gt;" style="shape=actor;whiteSpace=wrap;html=1;fontFamily=宋体;" parent="VhCTj4Ukv6jTrLHe99_o-70" vertex="1">
          <mxGeometry x="610" y="510" width="120" height="140" as="geometry" />
        </mxCell>
        <mxCell id="VhCTj4Ukv6jTrLHe99_o-5" value="&lt;font style=&quot;font-size: 36px;&quot;&gt;&lt;b&gt;&lt;br&gt;&lt;br&gt;邻居1&lt;/b&gt;&lt;/font&gt;" style="shape=actor;whiteSpace=wrap;html=1;fontFamily=宋体;" parent="VhCTj4Ukv6jTrLHe99_o-70" vertex="1">
          <mxGeometry x="410" y="290" width="120" height="140" as="geometry" />
        </mxCell>
        <mxCell id="VhCTj4Ukv6jTrLHe99_o-7" value="&lt;font style=&quot;font-size: 36px;&quot;&gt;&lt;b&gt;&lt;br&gt;&lt;br&gt;邻居n&lt;/b&gt;&lt;/font&gt;" style="shape=actor;whiteSpace=wrap;html=1;fontFamily=宋体;" parent="VhCTj4Ukv6jTrLHe99_o-70" vertex="1">
          <mxGeometry x="160" y="500" width="120" height="140" as="geometry" />
        </mxCell>
        <mxCell id="VhCTj4Ukv6jTrLHe99_o-8" value="&lt;font style=&quot;font-size: 36px;&quot;&gt;交互项目v&lt;/font&gt;" style="html=1;shape=mxgraph.sysml.itemFlow;fontStyle=1;flowDir=e;flowType=out;whiteSpace=wrap;align=center;fontFamily=宋体;" parent="VhCTj4Ukv6jTrLHe99_o-70" vertex="1">
          <mxGeometry x="610" y="780" width="200" height="80" as="geometry" />
        </mxCell>
        <mxCell id="VhCTj4Ukv6jTrLHe99_o-9" value="&lt;font style=&quot;font-size: 36px;&quot;&gt;交互项目1&lt;/font&gt;" style="html=1;shape=mxgraph.sysml.itemFlow;fontStyle=1;flowDir=e;flowType=out;whiteSpace=wrap;align=center;fontFamily=宋体;" parent="VhCTj4Ukv6jTrLHe99_o-70" vertex="1">
          <mxGeometry x="70" y="780" width="200" height="80" as="geometry" />
        </mxCell>
        <mxCell id="VhCTj4Ukv6jTrLHe99_o-10" value="&lt;font style=&quot;font-size: 36px;&quot;&gt;交互项目2&lt;/font&gt;" style="html=1;shape=mxgraph.sysml.itemFlow;fontStyle=1;flowDir=e;flowType=out;whiteSpace=wrap;align=center;fontFamily=宋体;" parent="VhCTj4Ukv6jTrLHe99_o-70" vertex="1">
          <mxGeometry x="290" y="780" width="200" height="80" as="geometry" />
        </mxCell>
        <mxCell id="VhCTj4Ukv6jTrLHe99_o-11" value="&lt;font style=&quot;font-size: 36px;&quot;&gt;虚假交互项目1&lt;/font&gt;" style="html=1;shape=mxgraph.sysml.itemFlow;fontStyle=1;flowDir=e;flowType=out;whiteSpace=wrap;align=center;fontFamily=宋体;" parent="VhCTj4Ukv6jTrLHe99_o-70" vertex="1">
          <mxGeometry x="420" y="930" width="320" height="110" as="geometry" />
        </mxCell>
        <mxCell id="VhCTj4Ukv6jTrLHe99_o-15" value="" style="endArrow=none;html=1;rounded=0;entryX=0.5;entryY=1;entryDx=0;entryDy=0;exitX=0.25;exitY=0.2;exitDx=0;exitDy=0;exitPerimeter=0;fontFamily=宋体;" parent="VhCTj4Ukv6jTrLHe99_o-70" source="VhCTj4Ukv6jTrLHe99_o-2" target="VhCTj4Ukv6jTrLHe99_o-5" edge="1">
          <mxGeometry width="50" height="50" relative="1" as="geometry">
            <mxPoint x="310" y="580" as="sourcePoint" />
            <mxPoint x="360" y="530" as="targetPoint" />
          </mxGeometry>
        </mxCell>
        <mxCell id="VhCTj4Ukv6jTrLHe99_o-16" value="" style="endArrow=none;html=1;rounded=0;entryX=1;entryY=0.75;entryDx=0;entryDy=0;exitX=0.1;exitY=0.5;exitDx=0;exitDy=0;exitPerimeter=0;fontFamily=宋体;" parent="VhCTj4Ukv6jTrLHe99_o-70" source="VhCTj4Ukv6jTrLHe99_o-2" target="VhCTj4Ukv6jTrLHe99_o-7" edge="1">
          <mxGeometry width="50" height="50" relative="1" as="geometry">
            <mxPoint x="650" y="548" as="sourcePoint" />
            <mxPoint x="480" y="440" as="targetPoint" />
          </mxGeometry>
        </mxCell>
        <mxCell id="VhCTj4Ukv6jTrLHe99_o-17" value="&lt;font style=&quot;font-size: 36px;&quot;&gt;&lt;b&gt;&lt;br&gt;&lt;br&gt;邻居2&lt;/b&gt;&lt;/font&gt;" style="shape=actor;whiteSpace=wrap;html=1;fontFamily=宋体;" parent="VhCTj4Ukv6jTrLHe99_o-70" vertex="1">
          <mxGeometry x="270" y="350" width="120" height="140" as="geometry" />
        </mxCell>
        <mxCell id="VhCTj4Ukv6jTrLHe99_o-18" value="" style="endArrow=none;html=1;rounded=0;entryX=0.5;entryY=1;entryDx=0;entryDy=0;exitX=0.25;exitY=0.2;exitDx=0;exitDy=0;exitPerimeter=0;fontFamily=宋体;" parent="VhCTj4Ukv6jTrLHe99_o-70" source="VhCTj4Ukv6jTrLHe99_o-2" target="VhCTj4Ukv6jTrLHe99_o-17" edge="1">
          <mxGeometry width="50" height="50" relative="1" as="geometry">
            <mxPoint x="650" y="548" as="sourcePoint" />
            <mxPoint x="480" y="440" as="targetPoint" />
          </mxGeometry>
        </mxCell>
        <mxCell id="VhCTj4Ukv6jTrLHe99_o-19" value="&lt;font style=&quot;font-size: 36px;&quot;&gt;虚假交互项目m&lt;/font&gt;" style="html=1;shape=mxgraph.sysml.itemFlow;fontStyle=1;flowDir=e;flowType=out;whiteSpace=wrap;align=center;fontFamily=宋体;" parent="VhCTj4Ukv6jTrLHe99_o-70" vertex="1">
          <mxGeometry x="420" y="1080" width="320" height="110" as="geometry" />
        </mxCell>
        <mxCell id="VhCTj4Ukv6jTrLHe99_o-31" value="&lt;br&gt;&lt;b style=&quot;border-color: var(--border-color); color: rgb(0, 0, 0); font-size: 12px; font-style: normal; font-variant-ligatures: normal; font-variant-caps: normal; letter-spacing: normal; orphans: 2; text-indent: 0px; text-transform: none; widows: 2; word-spacing: 0px; -webkit-text-stroke-width: 0px; background-color: rgb(251, 251, 251); text-decoration-thickness: initial; text-decoration-style: initial; text-decoration-color: initial;&quot;&gt;&lt;font style=&quot;border-color: var(--border-color); font-size: 36px;&quot;&gt;用户嵌入&lt;/font&gt;&lt;/b&gt;&lt;br&gt;" style="shape=ext;double=1;rounded=0;whiteSpace=wrap;html=1;align=center;fontFamily=宋体;" parent="VhCTj4Ukv6jTrLHe99_o-70" vertex="1">
          <mxGeometry x="1030" y="660" width="270" height="100" as="geometry" />
        </mxCell>
        <mxCell id="VhCTj4Ukv6jTrLHe99_o-32" value="&lt;br&gt;&lt;b style=&quot;border-color: var(--border-color); color: rgb(0, 0, 0); font-size: 12px; font-style: normal; font-variant-ligatures: normal; font-variant-caps: normal; letter-spacing: normal; orphans: 2; text-indent: 0px; text-transform: none; widows: 2; word-spacing: 0px; -webkit-text-stroke-width: 0px; background-color: rgb(251, 251, 251); text-decoration-thickness: initial; text-decoration-style: initial; text-decoration-color: initial;&quot;&gt;&lt;font style=&quot;border-color: var(--border-color); font-size: 36px;&quot;&gt;邻居嵌入&lt;/font&gt;&lt;/b&gt;" style="shape=ext;double=1;rounded=0;whiteSpace=wrap;html=1;align=center;fontFamily=宋体;" parent="VhCTj4Ukv6jTrLHe99_o-70" vertex="1">
          <mxGeometry x="1030" y="460" width="270" height="100" as="geometry" />
        </mxCell>
        <mxCell id="VhCTj4Ukv6jTrLHe99_o-33" value="&lt;br&gt;&lt;b style=&quot;border-color: var(--border-color); color: rgb(0, 0, 0); font-size: 12px; font-style: normal; font-variant-ligatures: normal; font-variant-caps: normal; letter-spacing: normal; orphans: 2; text-indent: 0px; text-transform: none; widows: 2; word-spacing: 0px; -webkit-text-stroke-width: 0px; background-color: rgb(251, 251, 251); text-decoration-thickness: initial; text-decoration-style: initial; text-decoration-color: initial;&quot;&gt;&lt;font style=&quot;border-color: var(--border-color); font-size: 36px;&quot;&gt;项目嵌入&lt;/font&gt;&lt;/b&gt;" style="shape=ext;double=1;rounded=0;whiteSpace=wrap;html=1;align=center;fontFamily=宋体;" parent="VhCTj4Ukv6jTrLHe99_o-70" vertex="1">
          <mxGeometry x="1030" y="860" width="270" height="100" as="geometry" />
        </mxCell>
        <mxCell id="VhCTj4Ukv6jTrLHe99_o-39" value="&lt;font style=&quot;font-size: 40px;&quot;&gt;&lt;b&gt;GAT&lt;/b&gt;&lt;/font&gt;" style="rounded=1;whiteSpace=wrap;html=1;shadow=0;comic=0;strokeColor=#036897;strokeWidth=2;fillColor=none;fontFamily=宋体;fontSize=28;fontColor=#6881B3;align=center;arcSize=11;verticalAlign=top;" parent="VhCTj4Ukv6jTrLHe99_o-70" vertex="1">
          <mxGeometry x="1380" y="295" width="310" height="810" as="geometry" />
        </mxCell>
        <mxCell id="VhCTj4Ukv6jTrLHe99_o-40" value="" style="edgeStyle=orthogonalEdgeStyle;rounded=0;orthogonalLoop=1;jettySize=auto;html=1;fontFamily=宋体;" parent="VhCTj4Ukv6jTrLHe99_o-70" source="VhCTj4Ukv6jTrLHe99_o-1" target="VhCTj4Ukv6jTrLHe99_o-39" edge="1">
          <mxGeometry relative="1" as="geometry" />
        </mxCell>
        <mxCell id="VhCTj4Ukv6jTrLHe99_o-41" value="&lt;span style=&quot;font-size: 40px;&quot;&gt;&lt;b&gt;预测评分&lt;/b&gt;&lt;/span&gt;" style="rounded=1;whiteSpace=wrap;html=1;shadow=0;comic=0;strokeColor=#036897;strokeWidth=2;fillColor=none;fontFamily=宋体;fontSize=28;fontColor=#6881B3;align=center;arcSize=11;verticalAlign=top;" parent="VhCTj4Ukv6jTrLHe99_o-70" vertex="1">
          <mxGeometry x="1770" y="335" width="310" height="730" as="geometry" />
        </mxCell>
        <mxCell id="VhCTj4Ukv6jTrLHe99_o-42" value="" style="edgeStyle=orthogonalEdgeStyle;rounded=0;orthogonalLoop=1;jettySize=auto;html=1;fontFamily=宋体;" parent="VhCTj4Ukv6jTrLHe99_o-70" source="VhCTj4Ukv6jTrLHe99_o-39" target="VhCTj4Ukv6jTrLHe99_o-41" edge="1">
          <mxGeometry relative="1" as="geometry" />
        </mxCell>
        <mxCell id="VhCTj4Ukv6jTrLHe99_o-46" value="&lt;br&gt;&lt;b style=&quot;border-color: var(--border-color); color: rgb(0, 0, 0); font-size: 12px; font-style: normal; font-variant-ligatures: normal; font-variant-caps: normal; letter-spacing: normal; orphans: 2; text-indent: 0px; text-transform: none; widows: 2; word-spacing: 0px; -webkit-text-stroke-width: 0px; background-color: rgb(251, 251, 251); text-decoration-thickness: initial; text-decoration-style: initial; text-decoration-color: initial;&quot;&gt;&lt;font style=&quot;border-color: var(--border-color); font-size: 36px;&quot;&gt;用户嵌入&lt;/font&gt;&lt;/b&gt;&lt;br&gt;" style="shape=ext;double=1;rounded=0;whiteSpace=wrap;html=1;align=center;fontFamily=宋体;" parent="VhCTj4Ukv6jTrLHe99_o-70" vertex="1">
          <mxGeometry x="1400" y="660" width="270" height="100" as="geometry" />
        </mxCell>
        <mxCell id="VhCTj4Ukv6jTrLHe99_o-47" value="&lt;br&gt;&lt;b style=&quot;border-color: var(--border-color); color: rgb(0, 0, 0); font-size: 12px; font-style: normal; font-variant-ligatures: normal; font-variant-caps: normal; letter-spacing: normal; orphans: 2; text-indent: 0px; text-transform: none; widows: 2; word-spacing: 0px; -webkit-text-stroke-width: 0px; background-color: rgb(251, 251, 251); text-decoration-thickness: initial; text-decoration-style: initial; text-decoration-color: initial;&quot;&gt;&lt;font style=&quot;border-color: var(--border-color); font-size: 36px;&quot;&gt;邻居嵌入&lt;/font&gt;&lt;/b&gt;" style="shape=ext;double=1;rounded=0;whiteSpace=wrap;html=1;align=center;fontFamily=宋体;" parent="VhCTj4Ukv6jTrLHe99_o-70" vertex="1">
          <mxGeometry x="1400" y="460" width="270" height="100" as="geometry" />
        </mxCell>
        <mxCell id="VhCTj4Ukv6jTrLHe99_o-48" value="&lt;br&gt;&lt;b style=&quot;border-color: var(--border-color); color: rgb(0, 0, 0); font-size: 12px; font-style: normal; font-variant-ligatures: normal; font-variant-caps: normal; letter-spacing: normal; orphans: 2; text-indent: 0px; text-transform: none; widows: 2; word-spacing: 0px; -webkit-text-stroke-width: 0px; background-color: rgb(251, 251, 251); text-decoration-thickness: initial; text-decoration-style: initial; text-decoration-color: initial;&quot;&gt;&lt;font style=&quot;border-color: var(--border-color); font-size: 36px;&quot;&gt;项目嵌入&lt;/font&gt;&lt;/b&gt;" style="shape=ext;double=1;rounded=0;whiteSpace=wrap;html=1;align=center;fontFamily=宋体;" parent="VhCTj4Ukv6jTrLHe99_o-70" vertex="1">
          <mxGeometry x="1400" y="860" width="270" height="100" as="geometry" />
        </mxCell>
        <mxCell id="VhCTj4Ukv6jTrLHe99_o-51" value="&lt;font style=&quot;font-size: 36px;&quot;&gt;&lt;b&gt;计算内积&lt;br&gt;&lt;br&gt;计算损失函数&lt;br&gt;&lt;br&gt;获得 GAT 梯度&lt;br&gt;&lt;br&gt;获得嵌入层梯度&lt;/b&gt;&lt;br&gt;&lt;/font&gt;" style="shape=ext;double=1;rounded=1;whiteSpace=wrap;html=1;fontFamily=宋体;" parent="VhCTj4Ukv6jTrLHe99_o-70" vertex="1">
          <mxGeometry x="1790" y="440" width="270" height="500" as="geometry" />
        </mxCell>
        <mxCell id="VhCTj4Ukv6jTrLHe99_o-55" value="" style="edgeStyle=orthogonalEdgeStyle;rounded=0;orthogonalLoop=1;jettySize=auto;html=1;entryX=0.009;entryY=0.647;entryDx=0;entryDy=0;entryPerimeter=0;fontFamily=宋体;" parent="VhCTj4Ukv6jTrLHe99_o-70" source="VhCTj4Ukv6jTrLHe99_o-52" target="7c3789c024ecab99-53" edge="1">
          <mxGeometry relative="1" as="geometry" />
        </mxCell>
        <mxCell id="VhCTj4Ukv6jTrLHe99_o-52" value="&lt;span style=&quot;font-size: 40px;&quot;&gt;&lt;b&gt;&lt;br&gt;LDP&lt;/b&gt;&lt;/span&gt;" style="rounded=1;whiteSpace=wrap;html=1;shadow=0;comic=0;strokeColor=#036897;strokeWidth=2;fillColor=none;fontFamily=宋体;fontSize=28;fontColor=#6881B3;align=center;arcSize=11;verticalAlign=top;" parent="VhCTj4Ukv6jTrLHe99_o-70" vertex="1">
          <mxGeometry x="2160" y="622.5" width="230" height="157.5" as="geometry" />
        </mxCell>
        <mxCell id="VhCTj4Ukv6jTrLHe99_o-53" value="" style="edgeStyle=orthogonalEdgeStyle;rounded=0;orthogonalLoop=1;jettySize=auto;html=1;fontFamily=宋体;" parent="VhCTj4Ukv6jTrLHe99_o-70" source="VhCTj4Ukv6jTrLHe99_o-41" target="VhCTj4Ukv6jTrLHe99_o-52" edge="1">
          <mxGeometry relative="1" as="geometry" />
        </mxCell>
        <mxCell id="VhCTj4Ukv6jTrLHe99_o-62" value="" style="endArrow=none;html=1;rounded=0;exitX=0.9;exitY=0.5;exitDx=0;exitDy=0;exitPerimeter=0;entryX=0.5;entryY=0.08;entryDx=0;entryDy=0;entryPerimeter=0;fontFamily=宋体;" parent="VhCTj4Ukv6jTrLHe99_o-70" source="VhCTj4Ukv6jTrLHe99_o-5" target="7c3789c024ecab99-53" edge="1">
          <mxGeometry width="50" height="50" relative="1" as="geometry">
            <mxPoint x="960" y="50" as="sourcePoint" />
            <mxPoint x="1010" as="targetPoint" />
            <Array as="points">
              <mxPoint x="518" />
              <mxPoint x="2665" />
            </Array>
          </mxGeometry>
        </mxCell>
        <mxCell id="VhCTj4Ukv6jTrLHe99_o-65" value="&lt;font style=&quot;font-size: 36px;&quot;&gt;哈希匹配&lt;/font&gt;" style="edgeLabel;html=1;align=center;verticalAlign=middle;resizable=0;points=[];fontFamily=宋体;fontStyle=1" parent="VhCTj4Ukv6jTrLHe99_o-62" vertex="1" connectable="0">
          <mxGeometry x="-0.114" y="8" relative="1" as="geometry">
            <mxPoint x="-2" as="offset" />
          </mxGeometry>
        </mxCell>
        <mxCell id="VhCTj4Ukv6jTrLHe99_o-63" value="" style="endArrow=none;html=1;rounded=0;exitX=0.9;exitY=0.5;exitDx=0;exitDy=0;exitPerimeter=0;entryX=0.412;entryY=0.267;entryDx=0;entryDy=0;entryPerimeter=0;fontFamily=宋体;" parent="VhCTj4Ukv6jTrLHe99_o-70" target="7c3789c024ecab99-53" edge="1">
          <mxGeometry width="50" height="50" relative="1" as="geometry">
            <mxPoint x="330" y="344" as="sourcePoint" />
            <mxPoint x="2630" y="580" as="targetPoint" />
            <Array as="points">
              <mxPoint x="330" y="80" />
              <mxPoint x="1420" y="80" />
              <mxPoint x="2630" y="80" />
            </Array>
          </mxGeometry>
        </mxCell>
        <mxCell id="VhCTj4Ukv6jTrLHe99_o-64" value="" style="endArrow=none;html=1;rounded=0;exitX=0.9;exitY=0.5;exitDx=0;exitDy=0;exitPerimeter=0;entryX=0.26;entryY=0.22;entryDx=0;entryDy=0;entryPerimeter=0;fontFamily=宋体;" parent="VhCTj4Ukv6jTrLHe99_o-70" target="7c3789c024ecab99-53" edge="1">
          <mxGeometry width="50" height="50" relative="1" as="geometry">
            <mxPoint x="220" y="500" as="sourcePoint" />
            <mxPoint x="2367" y="726" as="targetPoint" />
            <Array as="points">
              <mxPoint x="220" y="140" />
              <mxPoint x="2567" y="150" />
            </Array>
          </mxGeometry>
        </mxCell>
        <mxCell id="VhCTj4Ukv6jTrLHe99_o-68" value="&lt;font style=&quot;font-size: 36px;&quot;&gt;哈希匹配&lt;/font&gt;" style="edgeLabel;html=1;align=center;verticalAlign=middle;resizable=0;points=[];fontFamily=宋体;fontStyle=1" parent="VhCTj4Ukv6jTrLHe99_o-70" vertex="1" connectable="0">
          <mxGeometry x="1529.9961904761908" y="80" as="geometry" />
        </mxCell>
        <mxCell id="VhCTj4Ukv6jTrLHe99_o-69" value="&lt;font style=&quot;font-size: 36px;&quot;&gt;&lt;b&gt;哈希匹配&lt;/b&gt;&lt;/font&gt;" style="edgeLabel;html=1;align=center;verticalAlign=middle;resizable=0;points=[];fontFamily=宋体;" parent="VhCTj4Ukv6jTrLHe99_o-70" vertex="1" connectable="0">
          <mxGeometry x="1539.9961904761908" y="90" as="geometry">
            <mxPoint x="-10" y="54" as="offset" />
          </mxGeometry>
        </mxCell>
      </root>
    </mxGraphModel>
  </diagram>
</mxfile>
